<!DOCTYPE svg PUBLIC "-//W3C//DTD SVG 1.1//EN" "http://www.w3.org/Graphics/SVG/1.1/DTD/svg11.dtd">
<!-- Uploaded to: SVG Repo, www.svgrepo.com, Transformed by: SVG Repo Mixer Tools -->
<svg fill="#000000" width="800px" height="800px" viewBox="0 0 24 24" id="ice-cream" data-name="Line Color" xmlns="http://www.w3.org/2000/svg" class="icon line-color">
<g id="SVGRepo_bgCarrier" stroke-width="0"/>
<g id="SVGRepo_tracerCarrier" stroke-linecap="round" stroke-linejoin="round"/>
<g id="SVGRepo_iconCarrier">
<path id="secondary" d="M16,12a3,3,0,0,1-1.79-.6,4.37,4.37,0,0,1-4.42,0A3,3,0,0,1,8,12H7.9l3.16,8.36a1,1,0,0,0,1.88,0L16.1,12Z" style="fill: none; stroke: #000000; stroke-linecap: round; stroke-linejoin: round; stroke-width: 2;"/>
<path id="primary" d="M19,9a3,3,0,0,1-4.79,2.4,4.37,4.37,0,0,1-4.42,0A3,3,0,1,1,7.77,6a4.47,4.47,0,0,1,8.46,0A3,3,0,0,1,19,9Z" style="fill: none; stroke: #000000; stroke-linecap: round; stroke-linejoin: round; stroke-width: 2;"/>
</g>
</svg>